<?xml version="1.0" encoding="UTF-8"?>
<svg width="30px" height="30px" viewBox="0 0 30 30" version="1.1" xmlns="http://www.w3.org/2000/svg" xmlns:xlink="http://www.w3.org/1999/xlink">
    <!-- Generator: Sketch 61.2 (89653) - https://sketch.com -->
    <title>copyright-24px</title>
    <desc>Created with Sketch.</desc>
    <defs>
        <polygon id="path-1" points="36 0 36 36 0 36 0 0"></polygon>
    </defs>
    <g id="Page-1" stroke="none" stroke-width="1" fill="none" fill-rule="evenodd">
        <g id="Portfolio-Site-Design-25M" transform="translate(-192.000000, -2513.000000)">
            <g id="Group-47" transform="translate(120.000000, 2510.000000)">
                <g id="copyright-24px" transform="translate(69.000000, 0.000000)">
                    <mask id="mask-2" fill="white">
                        <use xlink:href="#path-1"></use>
                    </mask>
                    <g id="a"></g>
                    <path d="M15.12,16.29 C15.195,15.795 15.36,15.36 15.57,14.985 C15.78,14.61 16.08,14.295 16.455,14.055 C16.815,13.83 17.265,13.725 17.82,13.71 C18.165,13.725 18.48,13.785 18.765,13.905 C19.065,14.04 19.335,14.22 19.545,14.445 C19.755,14.67 19.92,14.94 20.055,15.24 C20.19,15.54 20.25,15.87 20.265,16.2 L22.95,16.2 C22.92,15.495 22.785,14.85 22.53,14.265 C22.275,13.68 21.93,13.17 21.48,12.75 C21.03,12.33 20.49,12 19.86,11.76 C19.23,11.52 18.54,11.415 17.775,11.415 C16.8,11.415 15.945,11.58 15.225,11.925 C14.505,12.27 13.905,12.72 13.425,13.305 C12.945,13.89 12.585,14.565 12.36,15.345 C12.135,16.125 12,16.935 12,17.805 L12,18.21 C12,19.08 12.12,19.89 12.345,20.67 C12.57,21.45 12.93,22.125 13.41,22.695 C13.89,23.265 14.49,23.73 15.21,24.06 C15.93,24.39 16.785,24.57 17.76,24.57 C18.465,24.57 19.125,24.45 19.74,24.225 C20.355,24 20.895,23.685 21.36,23.28 C21.825,22.875 22.2,22.41 22.47,21.87 C22.74,21.33 22.905,20.76 22.92,20.145 L20.235,20.145 C20.22,20.46 20.145,20.745 20.01,21.015 C19.875,21.285 19.695,21.51 19.47,21.705 C19.245,21.9 18.99,22.05 18.69,22.155 C18.405,22.26 18.105,22.29 17.79,22.305 C17.25,22.29 16.8,22.185 16.455,21.96 C16.08,21.72 15.78,21.405 15.57,21.03 C15.36,20.655 15.195,20.205 15.12,19.71 C15.045,19.215 15,18.705 15,18.21 L15,17.805 C15,17.28 15.045,16.785 15.12,16.29 L15.12,16.29 Z M18,3 C9.72,3 3,9.72 3,18 C3,26.28 9.72,33 18,33 C26.28,33 33,26.28 33,18 C33,9.72 26.28,3 18,3 Z M18,30 C11.385,30 6,24.615 6,18 C6,11.385 11.385,6 18,6 C24.615,6 30,11.385 30,18 C30,24.615 24.615,30 18,30 Z" id="Shape" fill="#FFFFFF" fill-rule="nonzero" mask="url(#mask-2)"></path>
                </g>
            </g>
        </g>
    </g>
</svg>